<?xml version="1.0" encoding="UTF-8" standalone="no"?>
<!DOCTYPE svg PUBLIC "-//W3C//DTD SVG 1.1//EN"
 "http://www.w3.org/Graphics/SVG/1.1/DTD/svg11.dtd">
<!-- Generated by graphviz version 2.36.0 (20140111.2315)
 -->
<!-- Title: G Pages: 1 -->
<svg width="508pt" height="1230pt"
 viewBox="0.00 0.00 508.00 1230.00" xmlns="http://www.w3.org/2000/svg" xmlns:xlink="http://www.w3.org/1999/xlink">
<g id="graph0" class="graph" transform="scale(1 1) rotate(0) translate(4 1226)">
<title>G</title>
<polygon fill="white" stroke="none" points="-4,4 -4,-1226 504,-1226 504,4 -4,4"/>
<g id="clust1" class="cluster"><title>cluster_Global</title>
<path fill="none" stroke="gray" d="M20,-8C20,-8 480,-8 480,-8 486,-8 492,-14 492,-20 492,-20 492,-1202 492,-1202 492,-1208 486,-1214 480,-1214 480,-1214 20,-1214 20,-1214 14,-1214 8,-1208 8,-1202 8,-1202 8,-20 8,-20 8,-14 14,-8 20,-8"/>
<text text-anchor="middle" x="250" y="-1201.2" font-family="Times,serif" font-size="11.00" fill="gray">Global</text>
</g>
<!-- \\AnswerTestView -->
<g id="node1" class="node"><title>\\AnswerTestView</title>
<polygon fill="none" stroke="black" points="460.5,-106 349.5,-106 349.5,-70 460.5,-70 460.5,-106"/>
<text text-anchor="middle" x="405" y="-85.2" font-family="Courier,monospace" font-size="11.00">AnswerTestView</text>
</g>
<!-- \\TestViewer -->
<g id="node6" class="node"><title>\\TestViewer</title>
<polygon fill="none" stroke="black" points="240,-268 156,-268 156,-232 240,-232 240,-268"/>
<text text-anchor="start" x="164" y="-253.2" font-family="Courier,monospace" font-size="11.00">«abstract»</text>
<text text-anchor="start" x="164" y="-241.2" font-family="Courier,monospace" font-size="11.00">TestViewer</text>
</g>
<!-- \\AnswerTestView&#45;&gt;\\TestViewer -->
<g id="edge1" class="edge"><title>\\AnswerTestView&#45;&gt;\\TestViewer</title>
<path fill="none" stroke="black" d="M349.128,-103.195C341.066,-106.494 333.097,-110.405 326,-115 280.765,-144.288 240.364,-193.029 217.831,-223.239"/>
<polygon fill="none" stroke="black" points="214.785,-221.473 211.693,-231.607 220.43,-225.614 214.785,-221.473"/>
</g>
<!-- \\Course -->
<g id="node2" class="node"><title>\\Course</title>
<polygon fill="none" stroke="black" points="433.5,-1132 376.5,-1132 376.5,-1096 433.5,-1096 433.5,-1132"/>
<text text-anchor="middle" x="405" y="-1111.2" font-family="Courier,monospace" font-size="11.00">Course</text>
</g>
<!-- \\EvaluationController -->
<g id="node3" class="node"><title>\\EvaluationController</title>
<polygon fill="none" stroke="black" points="481,-538 329,-538 329,-502 481,-502 481,-538"/>
<text text-anchor="middle" x="405" y="-517.2" font-family="Courier,monospace" font-size="11.00">EvaluationController</text>
</g>
<!-- \\Controller -->
<g id="node23" class="node"><title>\\Controller</title>
<polygon fill="none" stroke="black" points="240,-484 156,-484 156,-448 240,-448 240,-484"/>
<text text-anchor="middle" x="198" y="-463.2" font-family="Courier,monospace" font-size="11.00">Controller</text>
</g>
<!-- \\EvaluationController&#45;&gt;\\Controller -->
<g id="edge2" class="edge"><title>\\EvaluationController&#45;&gt;\\Controller</title>
<path fill="none" stroke="black" d="M335.453,-501.944C307.606,-494.608 275.99,-486.28 250.207,-479.489"/>
<polygon fill="none" stroke="black" points="250.832,-476.034 240.27,-476.871 249.049,-482.803 250.832,-476.034"/>
</g>
<!-- \\MainView -->
<g id="node4" class="node"><title>\\MainView</title>
<polygon fill="none" stroke="black" points="233.5,-808 162.5,-808 162.5,-772 233.5,-772 233.5,-808"/>
<text text-anchor="middle" x="198" y="-787.2" font-family="Courier,monospace" font-size="11.00">MainView</text>
</g>
<!-- \\View -->
<g id="node15" class="node"><title>\\View</title>
<polygon fill="none" stroke="black" points="70,-943 16,-943 16,-907 70,-907 70,-943"/>
<text text-anchor="middle" x="43" y="-922.2" font-family="Courier,monospace" font-size="11.00">View</text>
</g>
<!-- \\MainView&#45;&gt;\\View -->
<g id="edge3" class="edge"><title>\\MainView&#45;&gt;\\View</title>
<path fill="none" stroke="black" d="M162.378,-804.508C155.343,-808.129 148.205,-812.331 142,-817 110.83,-840.457 81.6802,-874.8 63.4103,-898.429"/>
<polygon fill="none" stroke="black" points="60.4563,-896.531 57.1879,-906.609 66.0277,-900.769 60.4563,-896.531"/>
</g>
<!-- \\ResultView -->
<g id="node5" class="node"><title>\\ResultView</title>
<polygon fill="none" stroke="black" points="447,-322 363,-322 363,-286 447,-286 447,-322"/>
<text text-anchor="middle" x="405" y="-301.2" font-family="Courier,monospace" font-size="11.00">ResultView</text>
</g>
<!-- \\ResultView&#45;&gt;\\TestViewer -->
<g id="edge4" class="edge"><title>\\ResultView&#45;&gt;\\TestViewer</title>
<path fill="none" stroke="black" d="M362.515,-293.072C330.038,-284.517 284.71,-272.577 250.014,-263.438"/>
<polygon fill="none" stroke="black" points="250.635,-259.982 240.073,-260.819 248.851,-266.751 250.635,-259.982"/>
</g>
<!-- \\TestViewer&#45;&gt;\\View -->
<g id="edge5" class="edge"><title>\\TestViewer&#45;&gt;\\View</title>
<path fill="none" stroke="black" d="M191.177,-268.107C180.53,-301.605 157.584,-375.616 142,-439 99.5943,-611.477 61.8778,-821.671 48.8434,-896.713"/>
<polygon fill="none" stroke="black" points="45.3572,-896.334 47.1017,-906.784 52.2548,-897.527 45.3572,-896.334"/>
</g>
<!-- \\Question -->
<g id="node7" class="node"><title>\\Question</title>
<polygon fill="none" stroke="black" points="233.5,-1024 162.5,-1024 162.5,-988 233.5,-988 233.5,-1024"/>
<text text-anchor="middle" x="198" y="-1003.2" font-family="Courier,monospace" font-size="11.00">Question</text>
</g>
<!-- \\ClosedQuestion -->
<g id="node8" class="node"><title>\\ClosedQuestion</title>
<polygon fill="none" stroke="black" points="460.5,-1078 349.5,-1078 349.5,-1042 460.5,-1042 460.5,-1078"/>
<text text-anchor="middle" x="405" y="-1057.2" font-family="Courier,monospace" font-size="11.00">ClosedQuestion</text>
</g>
<!-- \\ClosedQuestion&#45;&gt;\\Question -->
<g id="edge6" class="edge"><title>\\ClosedQuestion&#45;&gt;\\Question</title>
<path fill="none" stroke="black" d="M349.333,-1045.6C316.155,-1036.86 274.357,-1025.85 243.262,-1017.66"/>
<polygon fill="none" stroke="black" points="244.128,-1014.27 233.566,-1015.11 242.345,-1021.04 244.128,-1014.27"/>
</g>
<!-- \\GapQuestion -->
<g id="node9" class="node"><title>\\GapQuestion</title>
<polygon fill="none" stroke="black" points="450.5,-1024 359.5,-1024 359.5,-988 450.5,-988 450.5,-1024"/>
<text text-anchor="middle" x="405" y="-1003.2" font-family="Courier,monospace" font-size="11.00">GapQuestion</text>
</g>
<!-- \\GapQuestion&#45;&gt;\\Question -->
<g id="edge7" class="edge"><title>\\GapQuestion&#45;&gt;\\Question</title>
<path fill="none" stroke="black" d="M359.265,-1006C325.1,-1006 278.222,-1006 243.993,-1006"/>
<polygon fill="none" stroke="black" points="243.805,-1002.5 233.804,-1006 243.804,-1009.5 243.805,-1002.5"/>
</g>
<!-- \\OpenQuestion -->
<g id="node10" class="node"><title>\\OpenQuestion</title>
<polygon fill="none" stroke="black" points="454,-1186 356,-1186 356,-1150 454,-1150 454,-1186"/>
<text text-anchor="middle" x="405" y="-1165.2" font-family="Courier,monospace" font-size="11.00">OpenQuestion</text>
</g>
<!-- \\OpenQuestion&#45;&gt;\\Question -->
<g id="edge8" class="edge"><title>\\OpenQuestion&#45;&gt;\\Question</title>
<path fill="none" stroke="black" d="M355.73,-1156.76C345.265,-1152.88 334.73,-1147.75 326,-1141 280.356,-1105.72 297.387,-1071.02 254,-1033 250.531,-1029.96 246.66,-1027.18 242.621,-1024.65"/>
<polygon fill="none" stroke="black" points="244.029,-1021.42 233.606,-1019.52 240.569,-1027.51 244.029,-1021.42"/>
</g>
<!-- \\EvaluateTestView -->
<g id="node11" class="node"><title>\\EvaluateTestView</title>
<polygon fill="none" stroke="black" points="467.5,-214 342.5,-214 342.5,-178 467.5,-178 467.5,-214"/>
<text text-anchor="middle" x="405" y="-193.2" font-family="Courier,monospace" font-size="11.00">EvaluateTestView</text>
</g>
<!-- \\EvaluateTestView&#45;&gt;\\TestViewer -->
<g id="edge9" class="edge"><title>\\EvaluateTestView&#45;&gt;\\TestViewer</title>
<path fill="none" stroke="black" d="M342.493,-212.202C312.978,-219.977 278.032,-229.182 250.017,-236.561"/>
<polygon fill="none" stroke="black" points="248.811,-233.26 240.032,-239.191 250.594,-240.029 248.811,-233.26"/>
</g>
<!-- \\Person -->
<g id="node12" class="node"><title>\\Person</title>
<polygon fill="none" stroke="black" points="433.5,-754 376.5,-754 376.5,-718 433.5,-718 433.5,-754"/>
<text text-anchor="middle" x="405" y="-733.2" font-family="Courier,monospace" font-size="11.00">Person</text>
</g>
<!-- \\LoginView -->
<g id="node13" class="node"><title>\\LoginView</title>
<polygon fill="none" stroke="black" points="236.5,-1132 159.5,-1132 159.5,-1096 236.5,-1096 236.5,-1132"/>
<text text-anchor="middle" x="198" y="-1111.2" font-family="Courier,monospace" font-size="11.00">LoginView</text>
</g>
<!-- \\LoginView&#45;&gt;\\View -->
<g id="edge10" class="edge"><title>\\LoginView&#45;&gt;\\View</title>
<path fill="none" stroke="black" d="M159.351,-1099.14C153.154,-1095.71 147.099,-1091.67 142,-1087 99.9722,-1048.51 69.92,-987.843 54.9003,-952.698"/>
<polygon fill="none" stroke="black" points="57.971,-950.968 50.8948,-943.082 51.5092,-953.659 57.971,-950.968"/>
</g>
<!-- \\DBController -->
<g id="node14" class="node"><title>\\DBController</title>
<polygon fill="none" stroke="black" points="454,-376 356,-376 356,-340 454,-340 454,-376"/>
<text text-anchor="middle" x="405" y="-355.2" font-family="Courier,monospace" font-size="11.00">DBController</text>
</g>
<!-- \\DBController&#45;&gt;\\Controller -->
<g id="edge11" class="edge"><title>\\DBController&#45;&gt;\\Controller</title>
<path fill="none" stroke="black" d="M355.847,-372.683C345.806,-376.293 335.417,-380.445 326,-385 292.516,-401.195 257.036,-424.398 232.114,-441.822"/>
<polygon fill="none" stroke="black" points="229.909,-439.095 223.76,-447.723 233.947,-444.812 229.909,-439.095"/>
</g>
<!-- \\Tab -->
<g id="node16" class="node"><title>\\Tab</title>
<polygon fill="none" stroke="black" points="225,-862 171,-862 171,-826 225,-826 225,-862"/>
<text text-anchor="middle" x="198" y="-841.2" font-family="Courier,monospace" font-size="11.00">Tab</text>
</g>
<!-- \\NewsTab -->
<g id="node17" class="node"><title>\\NewsTab</title>
<polygon fill="none" stroke="black" points="437,-700 373,-700 373,-664 437,-664 437,-700"/>
<text text-anchor="middle" x="405" y="-679.2" font-family="Courier,monospace" font-size="11.00">NewsTab</text>
</g>
<!-- \\NewsTab&#45;&gt;\\Tab -->
<g id="edge12" class="edge"><title>\\NewsTab&#45;&gt;\\Tab</title>
<path fill="none" stroke="black" d="M372.868,-687.86C357.595,-691.894 339.606,-698.484 326,-709 280.356,-744.28 297.387,-778.979 254,-817 248.225,-822.061 241.334,-826.414 234.415,-830.057"/>
<polygon fill="none" stroke="black" points="232.54,-827.076 225.065,-834.584 235.591,-833.376 232.54,-827.076"/>
</g>
<!-- \\ViewResultTab -->
<g id="node18" class="node"><title>\\ViewResultTab</title>
<polygon fill="none" stroke="black" points="457,-646 353,-646 353,-610 457,-610 457,-646"/>
<text text-anchor="middle" x="405" y="-625.2" font-family="Courier,monospace" font-size="11.00">ViewResultTab</text>
</g>
<!-- \\ViewResultTab&#45;&gt;\\Tab -->
<g id="edge13" class="edge"><title>\\ViewResultTab&#45;&gt;\\Tab</title>
<path fill="none" stroke="black" d="M352.816,-638.978C343.093,-642.832 333.599,-648.021 326,-655 267.97,-708.297 308.641,-760.235 254,-817 248.45,-822.766 241.412,-827.474 234.24,-831.249"/>
<polygon fill="none" stroke="black" points="232.722,-828.095 225.185,-835.541 235.721,-834.421 232.722,-828.095"/>
</g>
<!-- \\EvaluateTestTab -->
<g id="node19" class="node"><title>\\EvaluateTestTab</title>
<polygon fill="none" stroke="black" points="464,-970 346,-970 346,-934 464,-934 464,-970"/>
<text text-anchor="middle" x="405" y="-949.2" font-family="Courier,monospace" font-size="11.00">EvaluateTestTab</text>
</g>
<!-- \\EvaluateTestTab&#45;&gt;\\Tab -->
<g id="edge14" class="edge"><title>\\EvaluateTestTab&#45;&gt;\\Tab</title>
<path fill="none" stroke="black" d="M346.71,-933.909C339.633,-931.168 332.579,-928.182 326,-925 292.516,-908.805 257.036,-885.602 232.114,-868.178"/>
<polygon fill="none" stroke="black" points="233.947,-865.188 223.76,-862.277 229.909,-870.905 233.947,-865.188"/>
</g>
<!-- \\TestManagementTab -->
<g id="node20" class="node"><title>\\TestManagementTab</title>
<polygon fill="none" stroke="black" points="470.5,-916 339.5,-916 339.5,-880 470.5,-880 470.5,-916"/>
<text text-anchor="middle" x="405" y="-895.2" font-family="Courier,monospace" font-size="11.00">TestManagementTab</text>
</g>
<!-- \\TestManagementTab&#45;&gt;\\Tab -->
<g id="edge15" class="edge"><title>\\TestManagementTab&#45;&gt;\\Tab</title>
<path fill="none" stroke="black" d="M339.418,-880.988C305.029,-871.93 264.011,-861.125 235.215,-853.54"/>
<polygon fill="none" stroke="black" points="235.756,-850.063 225.194,-850.9 233.973,-856.832 235.756,-850.063"/>
</g>
<!-- \\CourseManagementTab -->
<g id="node21" class="node"><title>\\CourseManagementTab</title>
<polygon fill="none" stroke="black" points="477.5,-862 332.5,-862 332.5,-826 477.5,-826 477.5,-862"/>
<text text-anchor="middle" x="405" y="-841.2" font-family="Courier,monospace" font-size="11.00">CourseManagementTab</text>
</g>
<!-- \\CourseManagementTab&#45;&gt;\\Tab -->
<g id="edge16" class="edge"><title>\\CourseManagementTab&#45;&gt;\\Tab</title>
<path fill="none" stroke="black" d="M332.301,-844C299.479,-844 262.013,-844 235.176,-844"/>
<polygon fill="none" stroke="black" points="235.087,-840.5 225.087,-844 235.087,-847.5 235.087,-840.5"/>
</g>
<!-- \\AccountManagementTab -->
<g id="node22" class="node"><title>\\AccountManagementTab</title>
<polygon fill="none" stroke="black" points="481,-808 329,-808 329,-772 481,-772 481,-808"/>
<text text-anchor="middle" x="405" y="-787.2" font-family="Courier,monospace" font-size="11.00">AccountManagementTab</text>
</g>
<!-- \\AccountManagementTab&#45;&gt;\\Tab -->
<g id="edge17" class="edge"><title>\\AccountManagementTab&#45;&gt;\\Tab</title>
<path fill="none" stroke="black" d="M335.453,-808.056C301.909,-816.892 262.897,-827.169 235.199,-834.465"/>
<polygon fill="none" stroke="black" points="233.951,-831.174 225.172,-837.106 235.734,-837.943 233.951,-831.174"/>
</g>
<!-- \\AnswerPointController -->
<g id="node24" class="node"><title>\\AnswerPointController</title>
<polygon fill="none" stroke="black" points="484,-592 326,-592 326,-556 484,-556 484,-592"/>
<text text-anchor="middle" x="405" y="-571.2" font-family="Courier,monospace" font-size="11.00">AnswerPointController</text>
</g>
<!-- \\AnswerPointController&#45;&gt;\\Controller -->
<g id="edge18" class="edge"><title>\\AnswerPointController&#45;&gt;\\Controller</title>
<path fill="none" stroke="black" d="M346.71,-555.909C339.633,-553.168 332.579,-550.182 326,-547 292.516,-530.805 257.036,-507.602 232.114,-490.178"/>
<polygon fill="none" stroke="black" points="233.947,-487.188 223.76,-484.277 229.909,-492.905 233.947,-487.188"/>
</g>
<!-- \\TestTemplate -->
<g id="node25" class="node"><title>\\TestTemplate</title>
<polygon fill="none" stroke="black" points="454,-268 356,-268 356,-232 454,-232 454,-268"/>
<text text-anchor="middle" x="405" y="-247.2" font-family="Courier,monospace" font-size="11.00">TestTemplate</text>
</g>
<!-- \\LogoutController -->
<g id="node26" class="node"><title>\\LogoutController</title>
<polygon fill="none" stroke="black" points="467.5,-484 342.5,-484 342.5,-448 467.5,-448 467.5,-484"/>
<text text-anchor="middle" x="405" y="-463.2" font-family="Courier,monospace" font-size="11.00">LogoutController</text>
</g>
<!-- \\LogoutController&#45;&gt;\\Controller -->
<g id="edge19" class="edge"><title>\\LogoutController&#45;&gt;\\Controller</title>
<path fill="none" stroke="black" d="M342.493,-466C313.107,-466 278.339,-466 250.386,-466"/>
<polygon fill="none" stroke="black" points="250.032,-462.5 240.032,-466 250.032,-469.5 250.032,-462.5"/>
</g>
<!-- \\Answer -->
<g id="node27" class="node"><title>\\Answer</title>
<polygon fill="none" stroke="black" points="433.5,-160 376.5,-160 376.5,-124 433.5,-124 433.5,-160"/>
<text text-anchor="middle" x="405" y="-139.2" font-family="Courier,monospace" font-size="11.00">Answer</text>
</g>
<!-- \\TestRunnerView -->
<g id="node28" class="node"><title>\\TestRunnerView</title>
<polygon fill="none" stroke="black" points="253.5,-1078 142.5,-1078 142.5,-1042 253.5,-1042 253.5,-1078"/>
<text text-anchor="middle" x="198" y="-1057.2" font-family="Courier,monospace" font-size="11.00">TestRunnerView</text>
</g>
<!-- \\TestRunnerView&#45;&gt;\\View -->
<g id="edge20" class="edge"><title>\\TestRunnerView&#45;&gt;\\View</title>
<path fill="none" stroke="black" d="M155.73,-1041.9C150.937,-1039.18 146.25,-1036.2 142,-1033 110.83,-1009.54 81.6802,-975.2 63.4103,-951.571"/>
<polygon fill="none" stroke="black" points="66.0277,-949.231 57.1879,-943.391 60.4563,-953.469 66.0277,-949.231"/>
</g>
<!-- \\LoginController -->
<g id="node29" class="node"><title>\\LoginController</title>
<polygon fill="none" stroke="black" points="464,-430 346,-430 346,-394 464,-394 464,-430"/>
<text text-anchor="middle" x="405" y="-409.2" font-family="Courier,monospace" font-size="11.00">LoginController</text>
</g>
<!-- \\LoginController&#45;&gt;\\Controller -->
<g id="edge21" class="edge"><title>\\LoginController&#45;&gt;\\Controller</title>
<path fill="none" stroke="black" d="M345.804,-427.33C315.625,-435.279 279.103,-444.9 250.036,-452.556"/>
<polygon fill="none" stroke="black" points="248.867,-449.245 240.088,-455.177 250.65,-456.014 248.867,-449.245"/>
</g>
<!-- \\AfterTestView -->
<g id="node30" class="node"><title>\\AfterTestView</title>
<polygon fill="none" stroke="black" points="250,-943 146,-943 146,-907 250,-907 250,-943"/>
<text text-anchor="middle" x="198" y="-922.2" font-family="Courier,monospace" font-size="11.00">AfterTestView</text>
</g>
<!-- \\AfterTestView&#45;&gt;\\View -->
<g id="edge22" class="edge"><title>\\AfterTestView&#45;&gt;\\View</title>
<path fill="none" stroke="black" d="M145.628,-925C124.14,-925 99.6772,-925 80.1374,-925"/>
<polygon fill="none" stroke="black" points="80.1251,-921.5 70.1251,-925 80.125,-928.5 80.1251,-921.5"/>
</g>
<!-- \\Test -->
<g id="node31" class="node"><title>\\Test</title>
<polygon fill="none" stroke="black" points="432,-52 378,-52 378,-16 432,-16 432,-52"/>
<text text-anchor="middle" x="405" y="-31.2" font-family="Courier,monospace" font-size="11.00">Test</text>
</g>
</g>
</svg>
