<?xml version="1.0" encoding="UTF-8" standalone="no"?>
<!DOCTYPE svg PUBLIC "-//W3C//DTD SVG 1.1//EN"
 "http://www.w3.org/Graphics/SVG/1.1/DTD/svg11.dtd">
<!-- Generated by graphviz version 2.36.0 (20140111.2315)
 -->
<!-- Title: G Pages: 1 -->
<svg width="354pt" height="1446pt"
 viewBox="0.00 0.00 354.00 1446.00" xmlns="http://www.w3.org/2000/svg" xmlns:xlink="http://www.w3.org/1999/xlink">
<g id="graph0" class="graph" transform="scale(1 1) rotate(0) translate(4 1442)">
<title>G</title>
<polygon fill="white" stroke="none" points="-4,4 -4,-1442 350,-1442 350,4 -4,4"/>
<g id="clust1" class="cluster"><title>cluster_Global</title>
<path fill="none" stroke="gray" d="M20,-8C20,-8 326,-8 326,-8 332,-8 338,-14 338,-20 338,-20 338,-1418 338,-1418 338,-1424 332,-1430 326,-1430 326,-1430 20,-1430 20,-1430 14,-1430 8,-1424 8,-1418 8,-1418 8,-20 8,-20 8,-14 14,-8 20,-8"/>
<text text-anchor="middle" x="173" y="-1417.2" font-family="Times,serif" font-size="11.00" fill="gray">Global</text>
</g>
<!-- \\Answer -->
<g id="node1" class="node"><title>\\Answer</title>
<polygon fill="none" stroke="black" points="279.5,-1402 222.5,-1402 222.5,-1366 279.5,-1366 279.5,-1402"/>
<text text-anchor="middle" x="251" y="-1381.2" font-family="Courier,monospace" font-size="11.00">Answer</text>
</g>
<!-- \\Course -->
<g id="node2" class="node"><title>\\Course</title>
<polygon fill="none" stroke="black" points="279.5,-1348 222.5,-1348 222.5,-1312 279.5,-1312 279.5,-1348"/>
<text text-anchor="middle" x="251" y="-1327.2" font-family="Courier,monospace" font-size="11.00">Course</text>
</g>
<!-- \\TestTemplate -->
<g id="node3" class="node"><title>\\TestTemplate</title>
<polygon fill="none" stroke="black" points="300,-1294 202,-1294 202,-1258 300,-1258 300,-1294"/>
<text text-anchor="middle" x="251" y="-1273.2" font-family="Courier,monospace" font-size="11.00">TestTemplate</text>
</g>
<!-- \\Test -->
<g id="node4" class="node"><title>\\Test</title>
<polygon fill="none" stroke="black" points="278,-1240 224,-1240 224,-1204 278,-1204 278,-1240"/>
<text text-anchor="middle" x="251" y="-1219.2" font-family="Courier,monospace" font-size="11.00">Test</text>
</g>
<!-- \\Person -->
<g id="node5" class="node"><title>\\Person</title>
<polygon fill="none" stroke="black" points="279.5,-1186 222.5,-1186 222.5,-1150 279.5,-1150 279.5,-1186"/>
<text text-anchor="middle" x="251" y="-1165.2" font-family="Courier,monospace" font-size="11.00">Person</text>
</g>
<!-- \\Question -->
<g id="node6" class="node"><title>\\Question</title>
<polygon fill="none" stroke="black" points="93.5,-1078 22.5,-1078 22.5,-1042 93.5,-1042 93.5,-1078"/>
<text text-anchor="middle" x="58" y="-1057.2" font-family="Courier,monospace" font-size="11.00">Question</text>
</g>
<!-- \\ClosedQuestion -->
<g id="node7" class="node"><title>\\ClosedQuestion</title>
<polygon fill="none" stroke="black" points="306.5,-1132 195.5,-1132 195.5,-1096 306.5,-1096 306.5,-1132"/>
<text text-anchor="middle" x="251" y="-1111.2" font-family="Courier,monospace" font-size="11.00">ClosedQuestion</text>
</g>
<!-- \\ClosedQuestion&#45;&gt;\\Question -->
<g id="edge1" class="edge"><title>\\ClosedQuestion&#45;&gt;\\Question</title>
<path fill="none" stroke="black" d="M195.267,-1098.53C166.108,-1090.28 130.707,-1080.27 103.297,-1072.52"/>
<polygon fill="none" stroke="black" points="104.161,-1069.13 93.5861,-1069.78 102.257,-1075.87 104.161,-1069.13"/>
</g>
<!-- \\GapQuestion -->
<g id="node8" class="node"><title>\\GapQuestion</title>
<polygon fill="none" stroke="black" points="296.5,-1078 205.5,-1078 205.5,-1042 296.5,-1042 296.5,-1078"/>
<text text-anchor="middle" x="251" y="-1057.2" font-family="Courier,monospace" font-size="11.00">GapQuestion</text>
</g>
<!-- \\GapQuestion&#45;&gt;\\Question -->
<g id="edge2" class="edge"><title>\\GapQuestion&#45;&gt;\\Question</title>
<path fill="none" stroke="black" d="M205.219,-1060C174.742,-1060 134.556,-1060 104.026,-1060"/>
<polygon fill="none" stroke="black" points="103.662,-1056.5 93.6622,-1060 103.662,-1063.5 103.662,-1056.5"/>
</g>
<!-- \\OpenQuestion -->
<g id="node9" class="node"><title>\\OpenQuestion</title>
<polygon fill="none" stroke="black" points="300,-1024 202,-1024 202,-988 300,-988 300,-1024"/>
<text text-anchor="middle" x="251" y="-1003.2" font-family="Courier,monospace" font-size="11.00">OpenQuestion</text>
</g>
<!-- \\OpenQuestion&#45;&gt;\\Question -->
<g id="edge3" class="edge"><title>\\OpenQuestion&#45;&gt;\\Question</title>
<path fill="none" stroke="black" d="M201.803,-1019.63C171.52,-1028.19 132.747,-1039.15 103.247,-1047.49"/>
<polygon fill="none" stroke="black" points="102.294,-1044.12 93.6233,-1050.21 104.198,-1050.86 102.294,-1044.12"/>
</g>
<!-- \\Tab -->
<g id="node10" class="node"><title>\\Tab</title>
<polygon fill="none" stroke="black" points="85,-835 31,-835 31,-799 85,-799 85,-835"/>
<text text-anchor="middle" x="58" y="-814.2" font-family="Courier,monospace" font-size="11.00">Tab</text>
</g>
<!-- \\NewsTab -->
<g id="node11" class="node"><title>\\NewsTab</title>
<polygon fill="none" stroke="black" points="283,-970 219,-970 219,-934 283,-934 283,-970"/>
<text text-anchor="middle" x="251" y="-949.2" font-family="Courier,monospace" font-size="11.00">NewsTab</text>
</g>
<!-- \\NewsTab&#45;&gt;\\Tab -->
<g id="edge4" class="edge"><title>\\NewsTab&#45;&gt;\\Tab</title>
<path fill="none" stroke="black" d="M218.642,-944.49C203.833,-940.125 186.311,-933.735 172,-925 135.581,-902.771 101.273,-867.109 80.2203,-842.899"/>
<polygon fill="none" stroke="black" points="82.7644,-840.489 73.6049,-835.164 77.4445,-845.038 82.7644,-840.489"/>
</g>
<!-- \\ViewResultTab -->
<g id="node12" class="node"><title>\\ViewResultTab</title>
<polygon fill="none" stroke="black" points="303,-916 199,-916 199,-880 303,-880 303,-916"/>
<text text-anchor="middle" x="251" y="-895.2" font-family="Courier,monospace" font-size="11.00">ViewResultTab</text>
</g>
<!-- \\ViewResultTab&#45;&gt;\\Tab -->
<g id="edge5" class="edge"><title>\\ViewResultTab&#45;&gt;\\Tab</title>
<path fill="none" stroke="black" d="M198.922,-881.245C189.886,-878.019 180.617,-874.537 172,-871 145.424,-860.091 116.18,-846.058 94.1017,-835.032"/>
<polygon fill="none" stroke="black" points="95.6132,-831.875 85.1068,-830.509 92.4682,-838.128 95.6132,-831.875"/>
</g>
<!-- \\EvaluateTestTab -->
<g id="node13" class="node"><title>\\EvaluateTestTab</title>
<polygon fill="none" stroke="black" points="310,-862 192,-862 192,-826 310,-826 310,-862"/>
<text text-anchor="middle" x="251" y="-841.2" font-family="Courier,monospace" font-size="11.00">EvaluateTestTab</text>
</g>
<!-- \\EvaluateTestTab&#45;&gt;\\Tab -->
<g id="edge6" class="edge"><title>\\EvaluateTestTab&#45;&gt;\\Tab</title>
<path fill="none" stroke="black" d="M191.916,-835.789C160.523,-831.351 122.723,-826.008 95.4728,-822.156"/>
<polygon fill="none" stroke="black" points="95.6096,-818.64 85.2181,-820.706 94.6297,-825.572 95.6096,-818.64"/>
</g>
<!-- \\TestManagementTab -->
<g id="node14" class="node"><title>\\TestManagementTab</title>
<polygon fill="none" stroke="black" points="316.5,-808 185.5,-808 185.5,-772 316.5,-772 316.5,-808"/>
<text text-anchor="middle" x="251" y="-787.2" font-family="Courier,monospace" font-size="11.00">TestManagementTab</text>
</g>
<!-- \\TestManagementTab&#45;&gt;\\Tab -->
<g id="edge7" class="edge"><title>\\TestManagementTab&#45;&gt;\\Tab</title>
<path fill="none" stroke="black" d="M185.336,-799.141C155.279,-803.39 120.656,-808.284 95.2652,-811.874"/>
<polygon fill="none" stroke="black" points="94.7438,-808.412 85.3322,-813.278 95.7237,-815.343 94.7438,-808.412"/>
</g>
<!-- \\CourseManagementTab -->
<g id="node15" class="node"><title>\\CourseManagementTab</title>
<polygon fill="none" stroke="black" points="323.5,-754 178.5,-754 178.5,-718 323.5,-718 323.5,-754"/>
<text text-anchor="middle" x="251" y="-733.2" font-family="Courier,monospace" font-size="11.00">CourseManagementTab</text>
</g>
<!-- \\CourseManagementTab&#45;&gt;\\Tab -->
<g id="edge8" class="edge"><title>\\CourseManagementTab&#45;&gt;\\Tab</title>
<path fill="none" stroke="black" d="M195.158,-754.109C187.332,-756.947 179.424,-759.953 172,-763 145.424,-773.909 116.18,-787.942 94.1017,-798.968"/>
<polygon fill="none" stroke="black" points="92.4682,-795.872 85.1068,-803.491 95.6132,-802.125 92.4682,-795.872"/>
</g>
<!-- \\AccountManagementTab -->
<g id="node16" class="node"><title>\\AccountManagementTab</title>
<polygon fill="none" stroke="black" points="327,-700 175,-700 175,-664 327,-664 327,-700"/>
<text text-anchor="middle" x="251" y="-679.2" font-family="Courier,monospace" font-size="11.00">AccountManagementTab</text>
</g>
<!-- \\AccountManagementTab&#45;&gt;\\Tab -->
<g id="edge9" class="edge"><title>\\AccountManagementTab&#45;&gt;\\Tab</title>
<path fill="none" stroke="black" d="M189.193,-700.123C183.218,-702.762 177.382,-705.715 172,-709 135.581,-731.229 101.273,-766.891 80.2203,-791.101"/>
<polygon fill="none" stroke="black" points="77.4445,-788.962 73.6049,-798.836 82.7644,-793.511 77.4445,-788.962"/>
</g>
<!-- \\TestRunnerView -->
<g id="node17" class="node"><title>\\TestRunnerView</title>
<polygon fill="none" stroke="black" points="306.5,-646 195.5,-646 195.5,-610 306.5,-610 306.5,-646"/>
<text text-anchor="middle" x="251" y="-625.2" font-family="Courier,monospace" font-size="11.00">TestRunnerView</text>
</g>
<!-- \\View -->
<g id="node20" class="node"><title>\\View</title>
<polygon fill="none" stroke="black" points="85,-484 31,-484 31,-448 85,-448 85,-484"/>
<text text-anchor="middle" x="58" y="-463.2" font-family="Courier,monospace" font-size="11.00">View</text>
</g>
<!-- \\TestRunnerView&#45;&gt;\\View -->
<g id="edge10" class="edge"><title>\\TestRunnerView&#45;&gt;\\View</title>
<path fill="none" stroke="black" d="M195.294,-613.336C187.124,-609.956 179.079,-605.88 172,-601 130.039,-572.073 94.7981,-523.552 75.3265,-493.237"/>
<polygon fill="none" stroke="black" points="78.0883,-491.054 69.7998,-484.455 72.1638,-494.782 78.0883,-491.054"/>
</g>
<!-- \\AnswerTestView -->
<g id="node18" class="node"><title>\\AnswerTestView</title>
<polygon fill="none" stroke="black" points="306.5,-592 195.5,-592 195.5,-556 306.5,-556 306.5,-592"/>
<text text-anchor="middle" x="251" y="-571.2" font-family="Courier,monospace" font-size="11.00">AnswerTestView</text>
</g>
<!-- \\AnswerTestView&#45;&gt;\\View -->
<g id="edge11" class="edge"><title>\\AnswerTestView&#45;&gt;\\View</title>
<path fill="none" stroke="black" d="M195.444,-557.386C187.422,-554.295 179.381,-550.82 172,-547 141.587,-531.26 110.177,-508.088 88.2163,-490.556"/>
<polygon fill="none" stroke="black" points="90.2602,-487.708 80.2841,-484.14 85.8581,-493.15 90.2602,-487.708"/>
</g>
<!-- \\EvaluateTestView -->
<g id="node19" class="node"><title>\\EvaluateTestView</title>
<polygon fill="none" stroke="black" points="313.5,-538 188.5,-538 188.5,-502 313.5,-502 313.5,-538"/>
<text text-anchor="middle" x="251" y="-517.2" font-family="Courier,monospace" font-size="11.00">EvaluateTestView</text>
</g>
<!-- \\EvaluateTestView&#45;&gt;\\View -->
<g id="edge12" class="edge"><title>\\EvaluateTestView&#45;&gt;\\View</title>
<path fill="none" stroke="black" d="M188.252,-502.542C157.462,-493.837 121.3,-483.614 95.0679,-476.197"/>
<polygon fill="none" stroke="black" points="95.7573,-472.755 85.1822,-473.402 93.8528,-479.491 95.7573,-472.755"/>
</g>
<!-- \\MainView -->
<g id="node21" class="node"><title>\\MainView</title>
<polygon fill="none" stroke="black" points="286.5,-484 215.5,-484 215.5,-448 286.5,-448 286.5,-484"/>
<text text-anchor="middle" x="251" y="-463.2" font-family="Courier,monospace" font-size="11.00">MainView</text>
</g>
<!-- \\MainView&#45;&gt;\\View -->
<g id="edge13" class="edge"><title>\\MainView&#45;&gt;\\View</title>
<path fill="none" stroke="black" d="M215.411,-466C181.411,-466 129.73,-466 95.188,-466"/>
<polygon fill="none" stroke="black" points="95.0568,-462.5 85.0567,-466 95.0567,-469.5 95.0568,-462.5"/>
</g>
<!-- \\ResultView -->
<g id="node22" class="node"><title>\\ResultView</title>
<polygon fill="none" stroke="black" points="293,-430 209,-430 209,-394 293,-394 293,-430"/>
<text text-anchor="middle" x="251" y="-409.2" font-family="Courier,monospace" font-size="11.00">ResultView</text>
</g>
<!-- \\ResultView&#45;&gt;\\View -->
<g id="edge14" class="edge"><title>\\ResultView&#45;&gt;\\View</title>
<path fill="none" stroke="black" d="M208.556,-423.717C174.697,-433.29 127.322,-446.684 95.0244,-455.815"/>
<polygon fill="none" stroke="black" points="93.7748,-452.531 85.1042,-458.62 95.6793,-459.267 93.7748,-452.531"/>
</g>
<!-- \\AfterTestView -->
<g id="node23" class="node"><title>\\AfterTestView</title>
<polygon fill="none" stroke="black" points="303,-376 199,-376 199,-340 303,-340 303,-376"/>
<text text-anchor="middle" x="251" y="-355.2" font-family="Courier,monospace" font-size="11.00">AfterTestView</text>
</g>
<!-- \\AfterTestView&#45;&gt;\\View -->
<g id="edge15" class="edge"><title>\\AfterTestView&#45;&gt;\\View</title>
<path fill="none" stroke="black" d="M198.761,-373.358C189.653,-376.753 180.4,-380.653 172,-385 141.587,-400.74 110.177,-423.912 88.2163,-441.444"/>
<polygon fill="none" stroke="black" points="85.8581,-438.85 80.2841,-447.86 90.2602,-444.292 85.8581,-438.85"/>
</g>
<!-- \\LoginView -->
<g id="node24" class="node"><title>\\LoginView</title>
<polygon fill="none" stroke="black" points="289.5,-322 212.5,-322 212.5,-286 289.5,-286 289.5,-322"/>
<text text-anchor="middle" x="251" y="-301.2" font-family="Courier,monospace" font-size="11.00">LoginView</text>
</g>
<!-- \\LoginView&#45;&gt;\\View -->
<g id="edge16" class="edge"><title>\\LoginView&#45;&gt;\\View</title>
<path fill="none" stroke="black" d="M212.345,-312.55C198.861,-316.732 184.034,-322.704 172,-331 130.039,-359.927 94.7981,-408.448 75.3265,-438.763"/>
<polygon fill="none" stroke="black" points="72.1638,-437.218 69.7998,-447.545 78.0883,-440.946 72.1638,-437.218"/>
</g>
<!-- \\LogoutController -->
<g id="node25" class="node"><title>\\LogoutController</title>
<polygon fill="none" stroke="black" points="313.5,-268 188.5,-268 188.5,-232 313.5,-232 313.5,-268"/>
<text text-anchor="middle" x="251" y="-247.2" font-family="Courier,monospace" font-size="11.00">LogoutController</text>
</g>
<!-- \\Controller -->
<g id="node30" class="node"><title>\\Controller</title>
<polygon fill="none" stroke="black" points="100,-160 16,-160 16,-124 100,-124 100,-160"/>
<text text-anchor="middle" x="58" y="-139.2" font-family="Courier,monospace" font-size="11.00">Controller</text>
</g>
<!-- \\LogoutController&#45;&gt;\\Controller -->
<g id="edge17" class="edge"><title>\\LogoutController&#45;&gt;\\Controller</title>
<path fill="none" stroke="black" d="M191.711,-231.919C184.942,-229.209 178.236,-226.227 172,-223 141.587,-207.26 110.177,-184.088 88.2163,-166.556"/>
<polygon fill="none" stroke="black" points="90.2602,-163.708 80.2841,-160.14 85.8581,-169.15 90.2602,-163.708"/>
</g>
<!-- \\EvaluationController -->
<g id="node26" class="node"><title>\\EvaluationController</title>
<polygon fill="none" stroke="black" points="327,-214 175,-214 175,-178 327,-178 327,-214"/>
<text text-anchor="middle" x="251" y="-193.2" font-family="Courier,monospace" font-size="11.00">EvaluationController</text>
</g>
<!-- \\EvaluationController&#45;&gt;\\Controller -->
<g id="edge18" class="edge"><title>\\EvaluationController&#45;&gt;\\Controller</title>
<path fill="none" stroke="black" d="M186.134,-177.944C161.273,-170.915 133.186,-162.974 109.748,-156.348"/>
<polygon fill="none" stroke="black" points="110.585,-152.947 100.01,-153.594 108.681,-159.683 110.585,-152.947"/>
</g>
<!-- \\LoginController -->
<g id="node27" class="node"><title>\\LoginController</title>
<polygon fill="none" stroke="black" points="310,-160 192,-160 192,-124 310,-124 310,-160"/>
<text text-anchor="middle" x="251" y="-139.2" font-family="Courier,monospace" font-size="11.00">LoginController</text>
</g>
<!-- \\LoginController&#45;&gt;\\Controller -->
<g id="edge19" class="edge"><title>\\LoginController&#45;&gt;\\Controller</title>
<path fill="none" stroke="black" d="M191.916,-142C165.871,-142 135.416,-142 110.234,-142"/>
<polygon fill="none" stroke="black" points="110.151,-138.5 100.151,-142 110.151,-145.5 110.151,-138.5"/>
</g>
<!-- \\DBController -->
<g id="node28" class="node"><title>\\DBController</title>
<polygon fill="none" stroke="black" points="300,-106 202,-106 202,-70 300,-70 300,-106"/>
<text text-anchor="middle" x="251" y="-85.2" font-family="Courier,monospace" font-size="11.00">DBController</text>
</g>
<!-- \\DBController&#45;&gt;\\Controller -->
<g id="edge20" class="edge"><title>\\DBController&#45;&gt;\\Controller</title>
<path fill="none" stroke="black" d="M201.803,-101.626C173.727,-109.564 138.355,-119.564 109.839,-127.627"/>
<polygon fill="none" stroke="black" points="108.733,-124.302 100.062,-130.391 110.637,-131.038 108.733,-124.302"/>
</g>
<!-- \\AnswerPointController -->
<g id="node29" class="node"><title>\\AnswerPointController</title>
<polygon fill="none" stroke="black" points="330,-52 172,-52 172,-16 330,-16 330,-52"/>
<text text-anchor="middle" x="251" y="-31.2" font-family="Courier,monospace" font-size="11.00">AnswerPointController</text>
</g>
<!-- \\AnswerPointController&#45;&gt;\\Controller -->
<g id="edge21" class="edge"><title>\\AnswerPointController&#45;&gt;\\Controller</title>
<path fill="none" stroke="black" d="M191.711,-52.0806C184.942,-54.7915 178.236,-57.7726 172,-61 141.587,-76.7402 110.177,-99.9121 88.2163,-117.444"/>
<polygon fill="none" stroke="black" points="85.8581,-114.85 80.2841,-123.86 90.2602,-120.292 85.8581,-114.85"/>
</g>
</g>
</svg>
